<svg id="Layer_1" data-name="Layer 1" xmlns="http://www.w3.org/2000/svg" viewBox="0 0 1000 1000"><defs><style>.cls-1{fill:#1c693b;}.cls-2{font-size:26.097px;font-family:LucidaFax-Italic, Lucida Fax;font-style:italic;}.cls-3{fill:none;stroke:#1c693b;stroke-miterlimit:10;stroke-width:1.5px;}</style></defs><path d="M445.38,502.434s4.391-31.4,35.926-33S574.445,457.2,580.3,406.367c0,0,2-11.842-7.407-28.918,0,0-5.861-11.232-5.462-13.494,0,0,27.581,77.894-77.712,88.239-2.273.223-4.544.39-6.826.474-12.942.476-67.863,4.543-87.941,49.766Z"/><path d="M394.952,502.434c18.1-35.925,48.752-45.084,90.066-48.876,34.859-3.2,51.094-12.774,55.44-15.59,1-.647,2.173-1.348,3.172-2,41.346-26.814,23.666-71.589,23.8-72.017,0,0-4.029,68.757-93.976,73.414-69.456,5.056-102.717,51.964-101.919,65.27Z"/><path d="M588.054,411.157l38.587,91.277s-40.07-11.525-60.009-52.956C566.632,449.478,585.26,437.369,588.054,411.157Z"/><path d="M566.632,449.478s29.272,41.779,60.009,52.956H553.193l-16.942-35.57A103.077,103.077,0,0,0,566.632,449.478Z"/><path d="M432.111,362.99l-49.265,115.6S402.661,435,476.8,429.529C476.8,429.529,429.716,400.246,432.111,362.99Z"/><path class="cls-1" d="M172.767,635.172a7.11,7.11,0,0,1-1.846,2.77,4.611,4.611,0,0,1-2.77.692h-6q-2.31,0-2.308-1.5a6.093,6.093,0,0,1,.577-1.961l34.736-73.167a35.826,35.826,0,0,1,2.538-4.675,2.379,2.379,0,0,1,1.963-1.1,2.153,2.153,0,0,1,1.788,1.1,44.533,44.533,0,0,1,2.481,4.675l35.084,73.167a6.174,6.174,0,0,1,.577,1.961q0,1.5-2.423,1.5H230.7a4.336,4.336,0,0,1-2.714-.692,8.6,8.6,0,0,1-1.9-2.77L199.425,577.7Z"/><path class="cls-1" d="M315.7,631.478a3.612,3.612,0,0,1-1.675,1.271,63.071,63.071,0,0,1-30.005,7.154,41.942,41.942,0,0,1-20.541-5.134,38.716,38.716,0,0,1-14.888-14.484,41.293,41.293,0,0,1-5.54-21.465,42.833,42.833,0,0,1,5.655-22.1,39.093,39.093,0,0,1,15.35-14.887,44.321,44.321,0,0,1,21.465-5.25,47.642,47.642,0,0,1,15.694,2.6,49.44,49.44,0,0,1,13.042,6.635q1.5,1.038,1.5,2.076a4.379,4.379,0,0,1-.807,1.731l-3.232,4.617a2.272,2.272,0,0,1-1.846,1.154,3.446,3.446,0,0,1-1.846-.692q-11.081-7.155-22.736-7.155a31.289,31.289,0,0,0-15.695,3.922,27.274,27.274,0,0,0-10.731,10.964,32.915,32.915,0,0,0-3.81,15.927,32.024,32.024,0,0,0,3.981,16.041,27.988,27.988,0,0,0,10.734,10.849,29.89,29.89,0,0,0,14.944,3.807q10.845,0,18.234-3.347a3.366,3.366,0,0,0,1.328-.866,2.332,2.332,0,0,0,.289-1.325V602.974a2.691,2.691,0,0,1,.577-2.02,2.917,2.917,0,0,1,1.961-.518h6.462a2.923,2.923,0,0,1,1.963.518,2.7,2.7,0,0,1,.577,2.02V629.4A4.228,4.228,0,0,1,315.7,631.478Z"/><path class="cls-1" d="M466.03,619.079a28.794,28.794,0,0,1-7.118,5.88,29.512,29.512,0,0,1-15.061,3.981,29.178,29.178,0,0,1-14.944-3.924,28.1,28.1,0,0,1-10.619-10.9,31.728,31.728,0,0,1-3.865-15.638,32.134,32.134,0,0,1,3.924-15.925,28.693,28.693,0,0,1,10.731-11.022,29.173,29.173,0,0,1,15-3.981,29.529,29.529,0,0,1,15,3.922,28.207,28.207,0,0,1,6.946,5.691v-14.8a44.131,44.131,0,0,0-43.125-.291,39.855,39.855,0,0,0-15,15.117,42.533,42.533,0,0,0-5.482,21.407,41.678,41.678,0,0,0,5.426,21.119,39.188,39.188,0,0,0,14.829,14.83,41.733,41.733,0,0,0,21.061,5.366A42.657,42.657,0,0,0,466.03,634Z"/><path class="cls-1" d="M544.483,636.094a2.7,2.7,0,0,1-.577,2.02,2.928,2.928,0,0,1-1.963.52h-6.462a2.913,2.913,0,0,1-1.961-.52,2.677,2.677,0,0,1-.577-2.02V560.5a6.116,6.116,0,0,1,.518-2.885,1.885,1.885,0,0,1,1.79-.922,2.937,2.937,0,0,1,1.846.751,23.7,23.7,0,0,1,2.538,2.6l32.2,38.661,31.736-38.661q1.846-1.961,2.656-2.655a2.6,2.6,0,0,1,1.731-.692,1.881,1.881,0,0,1,1.787.922,6.11,6.11,0,0,1,.521,2.885v75.59a2.7,2.7,0,0,1-.577,2.02,2.928,2.928,0,0,1-1.963.52h-6.463a2.915,2.915,0,0,1-1.961-.52,2.681,2.681,0,0,1-.577-2.02V582.316l-23.081,28.389a15.828,15.828,0,0,1-2.308,2.6,2.677,2.677,0,0,1-3.462,0,15.6,15.6,0,0,1-2.308-2.6l-23.081-28.389Z"/><path class="cls-1" d="M633.228,635.172a7.121,7.121,0,0,1-1.846,2.77,4.613,4.613,0,0,1-2.771.692h-6q-2.308,0-2.308-1.5a6.12,6.12,0,0,1,.577-1.961l34.737-73.167a35.826,35.826,0,0,1,2.538-4.675,2.378,2.378,0,0,1,1.963-1.1,2.151,2.151,0,0,1,1.787,1.1,44.278,44.278,0,0,1,2.482,4.675l35.083,73.167a6.147,6.147,0,0,1,.577,1.961q0,1.5-2.423,1.5h-6.462a4.336,4.336,0,0,1-2.714-.692,8.6,8.6,0,0,1-1.9-2.77L659.886,577.7Z"/><path class="cls-1" d="M721.052,638.114a2.926,2.926,0,0,1-1.963.52h-6.462a2.913,2.913,0,0,1-1.961-.52,2.677,2.677,0,0,1-.577-2.02V560.389a2.686,2.686,0,0,1,.577-2.02,2.93,2.93,0,0,1,1.961-.518h22.042q32.891,0,32.89,25.042,0,8.31-4.154,13.675c-2.77,3.579-9.87,5.808-14.793,7.5l29.724,31.392a3.973,3.973,0,0,1,.924,2.193,1,1,0,0,1-.635.98c-.424.192-7.68,0-8.525,0h-6.81a5.575,5.575,0,0,1-2.885-.577,8.45,8.45,0,0,1-2.193-2.54l-24.523-33.7A2.839,2.839,0,0,1,733,600.2q0-.924,1.731-1.039c11.617-1.229,20.714-6.42,20.714-15.578q0-7.844-5.482-11.482t-15.868-3.636H723.013a1.126,1.126,0,0,0-1.384,1.387v66.24A2.694,2.694,0,0,1,721.052,638.114Z"/><path class="cls-1" d="M344.213,638.114a2.929,2.929,0,0,1-1.964.52h-6.462a2.913,2.913,0,0,1-1.961-.52,2.677,2.677,0,0,1-.577-2.02V560.389a2.686,2.686,0,0,1,.577-2.02,2.93,2.93,0,0,1,1.961-.518h22.042q32.89,0,32.89,25.042,0,8.31-4.154,13.675c-2.77,3.579-9.87,5.808-14.792,7.5L401.5,635.461a3.965,3.965,0,0,1,.924,2.193,1,1,0,0,1-.635.98c-.424.192-7.68,0-8.525,0h-6.81a5.577,5.577,0,0,1-2.885-.577,8.464,8.464,0,0,1-2.193-2.54l-24.523-33.7a2.846,2.846,0,0,1-.692-1.616q0-.924,1.731-1.039c11.617-1.229,20.714-6.42,20.714-15.578q0-7.844-5.482-11.482t-15.868-3.636H346.174a1.125,1.125,0,0,0-1.384,1.387v66.24A2.7,2.7,0,0,1,344.213,638.114Z"/><path class="cls-1" d="M800.594,569.262a1.5,1.5,0,0,1,.2.821v66.011a2.69,2.69,0,0,0,.576,2.02,2.927,2.927,0,0,0,1.964.52H809.8a2.918,2.918,0,0,0,1.961-.52,2.689,2.689,0,0,0,.577-2.02V570.083a1.514,1.514,0,0,1,.2-.821Z"/><path class="cls-1" d="M205.712,608.673H189.037c-.978,0-1.466.271-1.466.8a3.259,3.259,0,0,0,.39,1.2l7.883,12.8a3.862,3.862,0,0,0,.792,1,1.269,1.269,0,0,0,.8.335c.445,0,.932-.445,1.474-1.335l7.87-12.8a3.244,3.244,0,0,0,.4-1.2C207.186,608.944,206.7,608.673,205.712,608.673Z"/><path class="cls-1" d="M669.634,608.673H652.958c-.978,0-1.465.271-1.465.8a3.252,3.252,0,0,0,.389,1.2l7.883,12.8a3.862,3.862,0,0,0,.792,1,1.269,1.269,0,0,0,.8.335c.444,0,.931-.445,1.474-1.335l7.869-12.8a3.251,3.251,0,0,0,.4-1.2C671.108,608.944,670.621,608.673,669.634,608.673Z"/><text class="cls-2" transform="translate(299.012 676.276)">From Our Farms to the World</text><path class="cls-1" d="M839.19,556.459a.707.707,0,0,1,.817,1.094c-8.335,11.077-42.8,13.895-49.892,13.9-1.06,0-2.1.091-3.147.14a119.319,119.319,0,0,0-14.188,1.73l5.435-12.25a.788.788,0,0,1,.624-.456q.736-.088,1.429-.164a81.987,81.987,0,0,1,12.921-.346C822.379,561.545,834.808,558.21,839.19,556.459Z"/><path class="cls-1" d="M484.12,593.472c.095.365.169.751.237,1.116a20.381,20.381,0,0,1,.271,5.075c-.291,4.081-3.6,9.222-3.6,9.222l3.581-3.33a.422.422,0,0,1,.693.384,25.047,25.047,0,0,1-2.478,7.708c-1.572,3.109-7.142,10.214-10.072,13.049-3.532,3.424-4.678,5.066-6.638,7.207-.259.283-.8.045-.977.37-.027.068-.126-.187-.62-1.06a2.2,2.2,0,0,1,.1-2.341l.007-.007a42.52,42.52,0,0,1,3.816-4.426c.244-.243.494-.48.744-.717,5.36-5.075,11.958-15.487,11.958-15.487L478,611.476a.523.523,0,0,1-.622-.8c3.937-5.04,3.812-8.316,3.989-12.269a17.8,17.8,0,0,0-.46-4.9c-.149-.623-.352-1.015-.535-1.78-.061-.264-.121-.514-.189-.771a20.53,20.53,0,0,0-4.141-7.863c-1.421-1.6-2.592-2.037-2.538-.806.007.345.413,3.039.494,5.272.007.223.014.446.014.649.006.183.006.372.013.569a9.169,9.169,0,0,1-.487,2.436,26.931,26.931,0,0,1-1.252,3.688c-1.522,3.7,1.254,11.641-1.865,16.182a37.883,37.883,0,0,0-3.945,7.058c-.19.473-.3,1.455-.445,1.881-1.054.525-1.132-3.621-1.064-4.947.156-3.065,2.382-5.142,3.83-7.118,1.894-2.558-.6-12.258.336-14.274.027-.041.034-.075.054-.109.135-.3,1.151,1.393,1.151,1.393l-.928-1.887a21.769,21.769,0,0,0,.941-2.848c.135-1.016.21-2.024.257-3.045.018-.225.027-.452.037-.681a29.38,29.38,0,0,0-.443-6.641l-.007-.039a1.536,1.536,0,0,1,2.369-1.553C479.82,583.287,482.963,588.73,484.12,593.472Z"/><path class="cls-1" d="M475.962,603.425c3.239,4.544-5.3,15.522-6.994,18.007-.234.347-.464.691-.684,1.045a22.588,22.588,0,0,0-2.368,5.31l-1.368-3.218a18.642,18.642,0,0,1,1.878-3.651C476.472,606.889,475.962,603.425,475.962,603.425Z"/><line class="cls-3" x1="694.786" y1="667.454" x2="791.66" y2="667.454"/><line class="cls-3" x1="192.745" y1="667.454" x2="289.619" y2="667.454"/><path class="cls-1" d="M483.915,420.951l-4.646,10.264s-49.412-25.868-47.158-68.225C432.111,362.99,439.562,404.4,483.915,420.951Z"/><path class="cls-1" d="M440.759,357.46a.292.292,0,0,1-.02.09.22.22,0,0,1,.01-.08A.01.01,0,0,1,440.759,357.46Z"/><path class="cls-1" d="M377.532,487.194s16.614-54,105.06-58.119c0,0,67.143-1.885,84.839-65.12,0,0-2.276,59.178-75.116,71.951a147.974,147.974,0,0,1-15.208,1.364C462.19,438.318,406.473,445.153,377.532,487.194Z"/><path class="cls-1" d="M544.379,403.12a94.094,94.094,0,0,1-29.2,18.73q-3.4-8.28-7.25-16.36l-8.58-17.98-8.58,17.98q-3.855,8.085-7.26,16.36a82.478,82.478,0,0,1-9.43-4.63,95.963,95.963,0,0,1-19.4-14.28,49.684,49.684,0,0,1-13.94-45.39.292.292,0,0,0,.02-.09v-.01c4.06-16.81,16.22-34.45,22.26-41.72,1.12-1.35.8,0,.91,1.88,1.65,28.26,16.35,34.22,16.35,34.22l19-12.83.07,4.26-.07-4.26,19.13,12.83s14.71-5.96,16.36-34.22c.11-1.88.44-3.29,1.56-1.94,6.05,7.27,17.55,24.97,21.59,41.78.01.03.02.07.03.1C561.219,374.06,556.469,391.42,544.379,403.12Z"/><polygon class="cls-1" points="499.999 386.14 499.349 387.51 498.689 386.14 499.349 343.26 499.999 386.14"/><path class="cls-1" d="M557.949,357.55c-.01-.03-.02-.07-.03-.1.02,0,.02.01.02.02A.22.22,0,0,1,557.949,357.55Z"/><path class="cls-1" d="M487.249,339.987s-12.471-15.14-11.584-25.607c0,0-6.232,10.558-5.672,13.862,0,0,5.018,11.02,11.7,17.717C481.7,345.959,486.894,343.624,487.249,339.987Z"/><path class="cls-1" d="M511.791,340.26s12.581-15.289,11.693-25.757c0,0,6.029,11.26,5.469,14.565,0,0-5.331,10.527-12.017,17.224C516.936,346.292,512.146,343.9,511.791,340.26Z"/><path class="cls-1" d="M523.819,315.036s-.54,13.35-12.15,25.32c0,0-10.98-11.4-12.12-10.2-1.14-1.2-12.12,10.2-12.12,10.2-11.61-11.97-12.12-25.32-12.12-25.32A183.66,183.66,0,0,1,491.34,291.83a10.6,10.6,0,0,1,16.429-.007A182.782,182.782,0,0,1,523.819,315.036Z"/><polygon class="cls-1" points="499.999 386.14 499.349 387.51 498.689 386.14 499.349 343.26 499.999 386.14"/><path d="M457.209,391.946s9.63-30.508,19.587-40.354c0,0-14.368-16.449-13.43-35.8a.814.814,0,0,1,1.582-.222c2.38,7.154,8.306,22.645,17.015,29.814,0,0,16.2-16.943,17.593-16.145s15.051,12.508,17.357,16.854c0,0,14.539-16.677,17.553-30.228a1,1,0,0,1,1.973.079c.677,5.653-.7,16.868-13.494,35.69,0,0,17.513,27.362,18.172,40.968,0,0-1.535,1.665-1.973,2.11-.4.409-7.8-28.142-32.951-50.19a10.452,10.452,0,0,0-13.91.013C484,352,470.012,367.546,459.418,394.37Z"/></svg>