<svg id="Layer_1" data-name="Layer 1" xmlns="http://www.w3.org/2000/svg" viewBox="0 0 1000 1000"><defs><style>.cls-1{fill:#1c693b;}</style></defs><path d="M398.564,702.4s8.294-59.314,67.859-62.33,175.931-23.123,186.989-119.131c0,0,3.77-22.368-13.99-54.622,0,0-11.071-21.216-10.317-25.489,0,0,52.1,147.133-146.789,166.673-4.294.422-8.584.738-12.895.9-24.445.9-128.185,8.582-166.111,94Z"/><path d="M303.31,702.4c34.181-67.859,92.088-85.159,170.125-92.322,65.845-6.044,96.511-24.128,104.721-29.448,1.888-1.223,4.1-2.546,5.99-3.77,78.1-50.649,44.7-135.223,44.959-136.032,0,0-7.611,129.875-177.51,138.671-131.2,9.551-194.021,98.154-192.513,123.287Z"/><path d="M668.059,529.985,740.945,702.4s-75.686-21.77-113.35-100.03C627.6,602.368,662.781,579.5,668.059,529.985Z"/><path d="M627.6,602.368s55.293,78.918,113.35,100.03H602.211l-32-67.189S598.19,626.328,627.6,602.368Z"/><path d="M373.5,439,280.443,657.355s37.43-82.342,177.463-92.666C457.906,564.689,368.977,509.376,373.5,439Z"/><path class="cls-1" d="M471.352,548.485l-8.776,19.388S369.243,519.011,373.5,439C373.5,439,387.575,517.221,471.352,548.485Z"/><path class="cls-1" d="M389.836,428.557a.543.543,0,0,1-.038.17.416.416,0,0,1,.019-.151A.019.019,0,0,1,389.836,428.557Z"/><path class="cls-1" d="M270.407,673.61s31.381-102,198.446-109.779c0,0,126.825-3.561,160.252-123,0,0-4.3,111.78-141.887,135.907-9.468,1.66-19.137,1.9-28.726,2.576C430.316,581.289,325.072,594.2,270.407,673.61Z"/><path class="cls-1" d="M585.564,514.808c-25.12,24.29-55.16,35.37-55.16,35.37q-6.42-15.63-13.7-30.9l-16.2-33.96-16.21,33.97q-7.29,15.255-13.71,30.89a156.878,156.878,0,0,1-17.81-8.75,180.951,180.951,0,0,1-36.65-26.96c-22.85-22.1-32.5-54.56-26.33-85.74a.526.526,0,0,0,.04-.17v-.02c7.67-31.75,30.64-65.07,42.05-78.8,2.11-2.55,1.51,0,1.72,3.55,3.11,53.38,30.88,64.63,30.88,64.63l35.89-24.23.13,8.05-.13-8.05,36.13,24.23s27.79-11.25,30.91-64.63c.2-3.55.83-6.22,2.94-3.67,11.43,13.73,33.15,47.17,40.78,78.92.02.06.04.13.06.19C617.374,459.908,608.394,492.708,585.564,514.808Z"/><polygon class="cls-1" points="501.734 482.731 500.506 485.319 499.259 482.731 500.506 401.735 501.734 482.731"/><path class="cls-1" d="M611.2,428.727c-.019-.056-.038-.132-.057-.188.038,0,.038.018.038.037A.416.416,0,0,1,611.2,428.727Z"/><path class="cls-1" d="M477.65,395.553s-23.556-28.6-21.881-48.368c0,0-11.772,19.942-10.714,26.183,0,0,9.479,20.815,22.108,33.466C467.163,406.834,476.979,402.423,477.65,395.553Z"/><path class="cls-1" d="M524.007,396.068s23.763-28.879,22.087-48.651c0,0,11.387,21.269,10.329,27.511,0,0-10.068,19.884-22.7,32.534C533.726,407.462,524.678,402.938,524.007,396.068Z"/><path class="cls-1" d="M546.727,348.424s-1.02,25.216-22.951,47.826c0,0-20.739-21.533-22.893-19.266-2.153-2.267-22.892,19.266-22.892,19.266C456.06,373.64,455.1,348.424,455.1,348.424a346.806,346.806,0,0,1,30.28-43.835,20.024,20.024,0,0,1,31.033-.012A345.152,345.152,0,0,1,546.727,348.424Z"/><polygon class="cls-1" points="501.734 482.731 500.506 485.319 499.259 482.731 500.506 401.735 501.734 482.731"/><path d="M420.908,493.7s18.19-57.625,37-76.224c0,0-27.141-31.069-25.369-67.625a1.539,1.539,0,0,1,2.989-.418c4.5,13.513,15.689,42.774,32.14,56.315,0,0,30.606-32,33.231-30.5s28.428,23.625,32.785,31.835c0,0,27.462-31.5,33.155-57.1a1.891,1.891,0,0,1,3.726.148c1.279,10.678-1.326,31.862-25.488,67.415,0,0,33.081,51.684,34.326,77.385,0,0-2.9,3.145-3.728,3.984-.761.773-14.737-53.157-62.24-94.8a19.743,19.743,0,0,0-26.275.023c-15.638,14.1-42.067,43.468-62.079,94.136Z"/></svg>