<svg id="Layer_1" data-name="Layer 1" xmlns="http://www.w3.org/2000/svg" viewBox="0 0 1000 1000"><defs><style>.cls-1{fill:#1c693b;}</style></defs><path d="M445.38,524.946s4.391-31.4,35.926-33,93.139-12.241,98.994-63.069c0,0,2-11.842-7.407-28.918,0,0-5.861-11.232-5.462-13.494,0,0,27.581,77.894-77.712,88.239-2.273.223-4.544.39-6.826.474-12.942.476-67.863,4.543-87.941,49.766Z"/><path d="M394.952,524.946c18.1-35.925,48.752-45.084,90.066-48.876,34.859-3.2,51.094-12.774,55.44-15.59,1-.647,2.173-1.348,3.172-2,41.346-26.814,23.666-71.589,23.8-72.017,0,0-4.029,68.757-93.976,73.414-69.456,5.056-102.717,51.964-101.919,65.27Z"/><path d="M588.054,433.669l38.587,91.277s-40.07-11.525-60.009-52.957C566.632,471.989,585.26,459.881,588.054,433.669Z"/><path d="M566.632,471.989s29.272,41.78,60.009,52.957H553.193l-16.942-35.57A103.067,103.067,0,0,0,566.632,471.989Z"/><path d="M432.111,385.5,382.846,501.1s19.815-43.593,93.95-49.059C476.8,452.041,429.716,422.758,432.111,385.5Z"/><path class="cls-1" d="M483.915,443.463l-4.646,10.264s-49.412-25.868-47.158-68.225C432.111,385.5,439.562,426.912,483.915,443.463Z"/><path class="cls-1" d="M377.532,509.706s16.614-54,105.06-58.119c0,0,67.143-1.885,84.839-65.12,0,0-2.276,59.178-75.116,71.951a147.974,147.974,0,0,1-15.208,1.364C462.19,460.83,406.473,467.665,377.532,509.706Z"/><polygon class="cls-1" points="499.999 408.658 499.349 410.028 498.689 408.658 499.349 365.768 499.999 408.658"/><path class="cls-1" d="M544.379,425.628a93.872,93.872,0,0,1-29.2,18.73q-3.4-8.265-7.25-16.34l-8.58-17.99-8.59,17.99q-3.855,8.07-7.25,16.34a82.478,82.478,0,0,1-9.43-4.63,95.963,95.963,0,0,1-19.4-14.28,49.658,49.658,0,0,1-13.94-45.39c.01-.03.01-.06.02-.09,4.05-16.8,16.22-34.45,22.26-41.73,1.12-1.35.8,0,.91,1.88,1.65,28.27,16.35,34.22,16.35,34.22l19-12.83.07,4.26-.07-4.26,19.13,12.83s14.71-5.95,16.36-34.22c.11-1.88.44-3.28,1.56-1.94,6.05,7.28,17.56,24.99,21.6,41.79.01.03.01.06.02.09C561.229,396.568,556.469,413.938,544.379,425.628Z"/><path class="cls-1" d="M557.949,380.058c-.01-.03-.01-.06-.02-.09.01,0,.01.01.01.02S557.949,380.038,557.949,380.058Z"/><path class="cls-1" d="M487.249,362.5s-12.471-15.14-11.584-25.607c0,0-6.232,10.558-5.672,13.862,0,0,5.018,11.02,11.7,17.717C481.7,368.471,486.894,366.136,487.249,362.5Z"/><path class="cls-1" d="M511.791,362.772s12.581-15.289,11.693-25.757c0,0,6.029,11.26,5.469,14.565,0,0-5.331,10.527-12.017,17.224C516.936,368.8,512.146,366.409,511.791,362.772Z"/><path class="cls-1" d="M523.819,337.548s-.54,13.35-12.15,25.32c0,0-10.98-11.4-12.12-10.2-1.14-1.2-12.12,10.2-12.12,10.2-11.61-11.97-12.12-25.32-12.12-25.32a183.66,183.66,0,0,1,16.031-23.206,10.6,10.6,0,0,1,16.429-.007A182.782,182.782,0,0,1,523.819,337.548Z"/><polygon class="cls-1" points="499.999 408.658 499.349 410.028 498.689 408.658 499.349 365.768 499.999 408.658"/><path d="M457.209,414.458s9.63-30.508,19.587-40.354c0,0-14.368-16.449-13.43-35.8a.814.814,0,0,1,1.582-.221c2.38,7.154,8.306,22.645,17.015,29.814,0,0,16.2-16.943,17.593-16.145s15.051,12.508,17.357,16.854c0,0,14.539-16.677,17.553-30.228a1,1,0,0,1,1.973.079c.677,5.653-.7,16.868-13.494,35.69,0,0,17.853,27.114,18.513,40.721,0,0-1.536,1.665-1.974,2.109-.4.409-8.142-27.894-33.291-49.942a10.452,10.452,0,0,0-13.91.013c-8.279,7.464-22.271,23.012-32.865,49.836Z"/><path class="cls-1" d="M172.767,671.257a7.123,7.123,0,0,1-1.846,2.771,4.619,4.619,0,0,1-2.77.692h-6q-2.31,0-2.308-1.5a6.093,6.093,0,0,1,.577-1.961l34.736-73.167a35.9,35.9,0,0,1,2.538-4.675,2.379,2.379,0,0,1,1.963-1.095,2.153,2.153,0,0,1,1.788,1.095,44.642,44.642,0,0,1,2.481,4.675l35.084,73.167a6.174,6.174,0,0,1,.577,1.961q0,1.5-2.423,1.5H230.7a4.343,4.343,0,0,1-2.714-.692,8.616,8.616,0,0,1-1.9-2.771l-26.66-57.472Z"/><path class="cls-1" d="M315.7,667.563a3.612,3.612,0,0,1-1.675,1.271,63.072,63.072,0,0,1-30.005,7.155,41.943,41.943,0,0,1-20.541-5.135,38.716,38.716,0,0,1-14.888-14.484,41.293,41.293,0,0,1-5.54-21.465,42.833,42.833,0,0,1,5.655-22.1,39.1,39.1,0,0,1,15.35-14.887,44.321,44.321,0,0,1,21.465-5.25,47.642,47.642,0,0,1,15.694,2.6,49.411,49.411,0,0,1,13.042,6.636q1.5,1.038,1.5,2.075a4.387,4.387,0,0,1-.807,1.732l-3.232,4.616a2.27,2.27,0,0,1-1.846,1.154,3.446,3.446,0,0,1-1.846-.692q-11.081-7.155-22.736-7.154a31.279,31.279,0,0,0-15.695,3.922,27.265,27.265,0,0,0-10.731,10.963,32.915,32.915,0,0,0-3.81,15.927,32.031,32.031,0,0,0,3.981,16.042,27.992,27.992,0,0,0,10.734,10.848,29.89,29.89,0,0,0,14.944,3.807q10.845,0,18.234-3.347a3.366,3.366,0,0,0,1.328-.866,2.332,2.332,0,0,0,.289-1.325V639.059a2.693,2.693,0,0,1,.577-2.02,2.917,2.917,0,0,1,1.961-.518h6.462a2.923,2.923,0,0,1,1.963.518,2.706,2.706,0,0,1,.577,2.02v26.428A4.228,4.228,0,0,1,315.7,667.563Z"/><path class="cls-1" d="M466.03,655.164a28.794,28.794,0,0,1-7.118,5.88,29.512,29.512,0,0,1-15.061,3.981,29.178,29.178,0,0,1-14.944-3.924,28.1,28.1,0,0,1-10.619-10.9,31.728,31.728,0,0,1-3.865-15.638,32.134,32.134,0,0,1,3.924-15.925,28.693,28.693,0,0,1,10.731-11.022,29.173,29.173,0,0,1,15-3.98,29.519,29.519,0,0,1,15,3.922,28.181,28.181,0,0,1,6.946,5.69v-14.8a44.128,44.128,0,0,0-43.125-.292,39.862,39.862,0,0,0-15,15.117,42.536,42.536,0,0,0-5.482,21.407,41.684,41.684,0,0,0,5.426,21.12,39.179,39.179,0,0,0,14.829,14.829,41.734,41.734,0,0,0,21.061,5.367,42.657,42.657,0,0,0,22.294-5.906Z"/><path class="cls-1" d="M544.483,672.179a2.7,2.7,0,0,1-.577,2.02,2.928,2.928,0,0,1-1.963.521h-6.462a2.913,2.913,0,0,1-1.961-.521,2.677,2.677,0,0,1-.577-2.02v-75.59a6.119,6.119,0,0,1,.518-2.885,1.885,1.885,0,0,1,1.79-.922,2.937,2.937,0,0,1,1.846.751,23.8,23.8,0,0,1,2.538,2.6l32.2,38.661,31.736-38.661q1.846-1.961,2.656-2.655a2.6,2.6,0,0,1,1.731-.692,1.881,1.881,0,0,1,1.787.922,6.113,6.113,0,0,1,.521,2.885v75.59a2.7,2.7,0,0,1-.577,2.02,2.928,2.928,0,0,1-1.963.521h-6.463a2.914,2.914,0,0,1-1.961-.521,2.681,2.681,0,0,1-.577-2.02V618.4L575.642,646.79a15.828,15.828,0,0,1-2.308,2.6,2.677,2.677,0,0,1-3.462,0,15.6,15.6,0,0,1-2.308-2.6L544.483,618.4Z"/><path class="cls-1" d="M633.228,671.257a7.134,7.134,0,0,1-1.846,2.771,4.62,4.62,0,0,1-2.771.692h-6q-2.308,0-2.308-1.5a6.12,6.12,0,0,1,.577-1.961l34.737-73.167a35.9,35.9,0,0,1,2.538-4.675,2.378,2.378,0,0,1,1.963-1.095,2.151,2.151,0,0,1,1.787,1.095,44.386,44.386,0,0,1,2.482,4.675l35.083,73.167a6.147,6.147,0,0,1,.577,1.961q0,1.5-2.423,1.5h-6.462a4.343,4.343,0,0,1-2.714-.692,8.617,8.617,0,0,1-1.9-2.771l-26.66-57.472Z"/><path class="cls-1" d="M721.052,674.2a2.926,2.926,0,0,1-1.963.521h-6.462a2.913,2.913,0,0,1-1.961-.521,2.677,2.677,0,0,1-.577-2.02v-75.7a2.682,2.682,0,0,1,.577-2.019,2.924,2.924,0,0,1,1.961-.519h22.042q32.891,0,32.89,25.042,0,8.31-4.154,13.675c-2.77,3.579-9.87,5.809-14.793,7.5l29.724,31.392a3.973,3.973,0,0,1,.924,2.193,1,1,0,0,1-.635.981c-.424.191-7.68,0-8.525,0h-6.81a5.585,5.585,0,0,1-2.885-.577,8.471,8.471,0,0,1-2.193-2.541l-24.523-33.7a2.837,2.837,0,0,1-.692-1.616c0-.616.577-.96,1.731-1.039,11.617-1.229,20.714-6.42,20.714-15.578q0-7.843-5.482-11.482t-15.868-3.635H723.013a1.125,1.125,0,0,0-1.384,1.386v66.24A2.694,2.694,0,0,1,721.052,674.2Z"/><path class="cls-1" d="M344.213,674.2a2.929,2.929,0,0,1-1.964.521h-6.462a2.913,2.913,0,0,1-1.961-.521,2.677,2.677,0,0,1-.577-2.02v-75.7a2.682,2.682,0,0,1,.577-2.019,2.924,2.924,0,0,1,1.961-.519h22.042q32.89,0,32.89,25.042,0,8.31-4.154,13.675c-2.77,3.579-9.87,5.809-14.792,7.5L401.5,671.546a3.965,3.965,0,0,1,.924,2.193,1,1,0,0,1-.635.981c-.424.191-7.68,0-8.525,0h-6.81a5.587,5.587,0,0,1-2.885-.577,8.485,8.485,0,0,1-2.193-2.541l-24.523-33.7a2.844,2.844,0,0,1-.692-1.616c0-.616.577-.96,1.731-1.039,11.617-1.229,20.714-6.42,20.714-15.578q0-7.843-5.482-11.482t-15.868-3.635H346.174a1.124,1.124,0,0,0-1.384,1.386v66.24A2.7,2.7,0,0,1,344.213,674.2Z"/><path class="cls-1" d="M800.594,605.347a1.509,1.509,0,0,1,.2.822v66.01a2.69,2.69,0,0,0,.576,2.02,2.927,2.927,0,0,0,1.964.521H809.8a2.918,2.918,0,0,0,1.961-.521,2.689,2.689,0,0,0,.577-2.02v-66.01a1.518,1.518,0,0,1,.2-.822Z"/><path class="cls-1" d="M205.712,644.758H189.037c-.978,0-1.466.271-1.466.8a3.261,3.261,0,0,0,.39,1.2l7.883,12.805a3.872,3.872,0,0,0,.792,1,1.269,1.269,0,0,0,.8.335c.445,0,.932-.445,1.474-1.334l7.87-12.805a3.247,3.247,0,0,0,.4-1.2C207.186,645.029,206.7,644.758,205.712,644.758Z"/><path class="cls-1" d="M669.634,644.758H652.958c-.978,0-1.465.271-1.465.8a3.254,3.254,0,0,0,.389,1.2l7.883,12.805a3.872,3.872,0,0,0,.792,1,1.269,1.269,0,0,0,.8.335c.444,0,.931-.445,1.474-1.334l7.869-12.805a3.253,3.253,0,0,0,.4-1.2C671.108,645.029,670.621,644.758,669.634,644.758Z"/><path class="cls-1" d="M839.19,592.544a.707.707,0,0,1,.817,1.094c-8.335,11.078-42.8,13.895-49.892,13.9-1.06,0-2.1.091-3.147.14a119.308,119.308,0,0,0-14.188,1.731l5.435-12.251a.788.788,0,0,1,.624-.456q.736-.089,1.429-.164a82.108,82.108,0,0,1,12.921-.346C822.379,597.63,834.808,594.295,839.19,592.544Z"/><path class="cls-1" d="M484.12,629.557c.095.365.169.751.237,1.116a20.381,20.381,0,0,1,.271,5.075c-.291,4.081-3.6,9.222-3.6,9.222l3.581-3.33a.422.422,0,0,1,.693.384,25.047,25.047,0,0,1-2.478,7.708c-1.572,3.109-7.142,10.214-10.072,13.05-3.532,3.424-4.678,5.065-6.638,7.206-.259.283-.8.046-.977.37-.027.068-.126-.187-.62-1.06a2.2,2.2,0,0,1,.1-2.341l.007-.007a42.406,42.406,0,0,1,3.816-4.425c.244-.244.494-.481.744-.718,5.36-5.075,11.958-15.487,11.958-15.487L478,647.561a.523.523,0,0,1-.622-.8c3.937-5.04,3.812-8.316,3.989-12.269a17.8,17.8,0,0,0-.46-4.9c-.149-.623-.352-1.015-.535-1.78-.061-.264-.121-.514-.189-.771a20.53,20.53,0,0,0-4.141-7.863c-1.421-1.6-2.592-2.037-2.538-.805.007.345.413,3.038.494,5.271.007.223.014.446.014.649.006.183.006.373.013.569a9.161,9.161,0,0,1-.487,2.436,26.931,26.931,0,0,1-1.252,3.688c-1.522,3.7,1.254,11.641-1.865,16.182a37.883,37.883,0,0,0-3.945,7.058c-.19.473-.3,1.455-.445,1.882-1.054.524-1.132-3.621-1.064-4.948.156-3.065,2.382-5.142,3.83-7.118,1.894-2.558-.6-12.258.336-14.274.027-.041.034-.075.054-.109.135-.3,1.151,1.393,1.151,1.393l-.928-1.887a21.769,21.769,0,0,0,.941-2.848c.135-1.015.21-2.024.257-3.045.018-.225.027-.452.037-.681a29.38,29.38,0,0,0-.443-6.641l-.007-.039a1.536,1.536,0,0,1,2.369-1.553C479.82,619.372,482.963,624.815,484.12,629.557Z"/><path class="cls-1" d="M475.962,639.511c3.239,4.544-5.3,15.521-6.994,18.006-.234.347-.464.691-.684,1.046a22.563,22.563,0,0,0-2.368,5.309l-1.368-3.218A18.642,18.642,0,0,1,466.426,657C476.472,642.974,475.962,639.511,475.962,639.511Z"/></svg>