<svg id="Layer_1" data-name="Layer 1" xmlns="http://www.w3.org/2000/svg" viewBox="0 0 1000 263.333"><defs><style>.cls-1{font-size:11.126px;font-family:LucidaFax-Italic, Lucida Fax;font-style:italic;}.cls-2{fill:#1c693b;}.cls-3{fill:none;stroke:#1c693b;stroke-miterlimit:10;stroke-width:0.5px;}</style></defs><text class="cls-1" transform="translate(526.27 184.388)">From Our Farms to the World</text><path class="cls-2" d="M436.043,160.19a3.624,3.624,0,0,1-.942,1.412,2.347,2.347,0,0,1-1.412.353h-3.06q-1.178,0-1.177-.765a3.121,3.121,0,0,1,.294-1l17.714-37.312a18.357,18.357,0,0,1,1.294-2.384,1.214,1.214,0,0,1,1-.558,1.1,1.1,0,0,1,.912.558,22.667,22.667,0,0,1,1.265,2.384l17.891,37.312a3.121,3.121,0,0,1,.294,1q0,.765-1.235.765h-3.3a2.212,2.212,0,0,1-1.384-.353,4.389,4.389,0,0,1-.97-1.412l-13.6-29.308Z"/><path class="cls-2" d="M508.93,158.306a1.848,1.848,0,0,1-.854.648,32.169,32.169,0,0,1-15.3,3.648,21.389,21.389,0,0,1-10.475-2.618,19.744,19.744,0,0,1-7.592-7.386,21.057,21.057,0,0,1-2.825-10.946,21.84,21.84,0,0,1,2.884-11.27,19.94,19.94,0,0,1,7.827-7.592,22.608,22.608,0,0,1,10.946-2.677,24.3,24.3,0,0,1,8,1.324,25.165,25.165,0,0,1,6.65,3.384q.765.53.765,1.058a2.225,2.225,0,0,1-.412.883l-1.648,2.354a1.158,1.158,0,0,1-.941.589,1.764,1.764,0,0,1-.942-.353,21.116,21.116,0,0,0-11.594-3.649,15.953,15.953,0,0,0-8,2,13.912,13.912,0,0,0-5.473,5.591A16.793,16.793,0,0,0,478,141.416a16.336,16.336,0,0,0,2.03,8.181,14.282,14.282,0,0,0,5.473,5.532,15.246,15.246,0,0,0,7.621,1.941,22.487,22.487,0,0,0,9.3-1.707,1.711,1.711,0,0,0,.677-.441,1.2,1.2,0,0,0,.147-.676V143.77a1.372,1.372,0,0,1,.294-1.03,1.487,1.487,0,0,1,1-.264h3.295a1.493,1.493,0,0,1,1,.264,1.381,1.381,0,0,1,.294,1.03v13.477A2.154,2.154,0,0,1,508.93,158.306Z"/><path class="cls-2" d="M585.592,151.983a14.718,14.718,0,0,1-3.63,3,15.056,15.056,0,0,1-7.68,2.029,14.876,14.876,0,0,1-7.621-2,14.32,14.32,0,0,1-5.415-5.561,16.173,16.173,0,0,1-1.971-7.974,16.392,16.392,0,0,1,2-8.121,14.635,14.635,0,0,1,5.472-5.621,14.877,14.877,0,0,1,7.651-2.03,15.059,15.059,0,0,1,7.651,2,14.385,14.385,0,0,1,3.542,2.9v-7.548a22.507,22.507,0,0,0-21.992-.149,20.321,20.321,0,0,0-7.65,7.709,21.683,21.683,0,0,0-2.8,10.916,21.255,21.255,0,0,0,2.767,10.77,19.976,19.976,0,0,0,7.562,7.562,21.275,21.275,0,0,0,10.74,2.737,21.757,21.757,0,0,0,11.369-3.011Z"/><path class="cls-2" d="M625.6,160.66a1.378,1.378,0,0,1-.294,1.03,1.493,1.493,0,0,1-1,.265h-3.3a1.487,1.487,0,0,1-1-.265,1.369,1.369,0,0,1-.294-1.03V122.113a3.122,3.122,0,0,1,.264-1.472.963.963,0,0,1,.913-.47,1.5,1.5,0,0,1,.941.383,12.146,12.146,0,0,1,1.295,1.324l16.419,19.715,16.184-19.715q.942-1,1.354-1.354a1.328,1.328,0,0,1,.883-.353.959.959,0,0,1,.911.47,3.118,3.118,0,0,1,.266,1.472V160.66a1.378,1.378,0,0,1-.294,1.03,1.5,1.5,0,0,1-1,.265h-3.295a1.485,1.485,0,0,1-1-.265,1.365,1.365,0,0,1-.294-1.03V133.236l-11.77,14.477a8.193,8.193,0,0,1-1.177,1.324,1.365,1.365,0,0,1-1.766,0,7.956,7.956,0,0,1-1.177-1.324L625.6,133.236Z"/><path class="cls-2" d="M670.854,160.19a3.624,3.624,0,0,1-.941,1.412,2.348,2.348,0,0,1-1.413.353h-3.06q-1.178,0-1.177-.765a3.1,3.1,0,0,1,.295-1l17.713-37.312a18.322,18.322,0,0,1,1.3-2.384,1.213,1.213,0,0,1,1-.558,1.1,1.1,0,0,1,.911.558,22.609,22.609,0,0,1,1.266,2.384l17.891,37.312a3.149,3.149,0,0,1,.294,1q0,.765-1.236.765H700.4a2.208,2.208,0,0,1-1.384-.353,4.389,4.389,0,0,1-.97-1.412l-13.6-29.308Z"/><path class="cls-2" d="M715.64,161.69a1.49,1.49,0,0,1-1,.265h-3.295a1.485,1.485,0,0,1-1-.265,1.365,1.365,0,0,1-.294-1.03V122.054a1.368,1.368,0,0,1,.294-1.03,1.491,1.491,0,0,1,1-.264h11.24q16.773,0,16.773,12.77a11.051,11.051,0,0,1-2.119,6.973c-1.412,1.826-5.033,2.962-7.543,3.826l15.157,16.008a2.021,2.021,0,0,1,.471,1.118.511.511,0,0,1-.324.5c-.216.1-3.916,0-4.347,0H737.18a2.855,2.855,0,0,1-1.472-.294,4.327,4.327,0,0,1-1.118-1.3l-12.506-17.184a1.457,1.457,0,0,1-.353-.825q0-.469.883-.529c5.924-.627,10.563-3.274,10.563-7.944a6.519,6.519,0,0,0-2.8-5.855q-2.794-1.854-8.092-1.854h-5.65a.573.573,0,0,0-.705.706v33.78A1.373,1.373,0,0,1,715.64,161.69Z"/><path class="cls-2" d="M523.471,161.69a1.492,1.492,0,0,1-1,.265h-3.3a1.483,1.483,0,0,1-1-.265,1.365,1.365,0,0,1-.295-1.03V122.054a1.368,1.368,0,0,1,.295-1.03,1.489,1.489,0,0,1,1-.264h11.24q16.773,0,16.772,12.77a11.051,11.051,0,0,1-2.118,6.973c-1.413,1.826-5.033,2.962-7.544,3.826l15.158,16.008a2.021,2.021,0,0,1,.471,1.118.511.511,0,0,1-.324.5c-.216.1-3.916,0-4.347,0H545.01a2.853,2.853,0,0,1-1.471-.294,4.327,4.327,0,0,1-1.118-1.3l-12.506-17.184a1.45,1.45,0,0,1-.353-.825q0-.469.883-.529c5.924-.627,10.563-3.274,10.563-7.944a6.519,6.519,0,0,0-2.8-5.855q-2.8-1.854-8.092-1.854h-5.65a.573.573,0,0,0-.705.706v33.78A1.373,1.373,0,0,1,523.471,161.69Z"/><path class="cls-2" d="M756.2,126.579a.769.769,0,0,1,.1.419V160.66a1.369,1.369,0,0,0,.294,1.03,1.492,1.492,0,0,0,1,.265h3.3a1.489,1.489,0,0,0,1-.265,1.374,1.374,0,0,0,.294-1.03V127a.769.769,0,0,1,.1-.419Z"/><path class="cls-2" d="M453.508,146.676h-8.5c-.5,0-.748.138-.748.411a1.656,1.656,0,0,0,.2.613l4.02,6.529a1.976,1.976,0,0,0,.4.51.645.645,0,0,0,.41.171c.227,0,.475-.227.752-.681l4.013-6.529a1.659,1.659,0,0,0,.2-.613C454.26,146.814,454.012,146.676,453.508,146.676Z"/><path class="cls-2" d="M688.846,146.676h-8.5c-.5,0-.748.138-.748.411a1.656,1.656,0,0,0,.2.613l4.02,6.529a1.976,1.976,0,0,0,.4.51.645.645,0,0,0,.41.171c.227,0,.475-.227.752-.681l4.013-6.529a1.659,1.659,0,0,0,.2-.613C689.6,146.814,689.35,146.676,688.846,146.676Z"/><path class="cls-2" d="M775.885,120.05a.36.36,0,0,1,.416.558c-4.25,5.649-21.827,7.085-25.442,7.087-.541,0-1.07.047-1.605.071a60.743,60.743,0,0,0-7.235.883l2.771-6.247a.406.406,0,0,1,.319-.233q.375-.045.728-.083a41.792,41.792,0,0,1,6.59-.177C767.312,122.643,773.65,120.943,775.885,120.05Z"/><path class="cls-2" d="M594.817,138.924c.048.187.086.383.121.57a10.409,10.409,0,0,1,.138,2.588,12.682,12.682,0,0,1-1.836,4.7l1.826-1.7a.215.215,0,0,1,.354.2,12.771,12.771,0,0,1-1.264,3.931,37.276,37.276,0,0,1-5.136,6.654c-1.8,1.746-2.386,2.583-3.385,3.675-.132.145-.409.024-.5.189-.014.035-.065-.095-.317-.541a1.12,1.12,0,0,1,.049-1.193l0,0a21.839,21.839,0,0,1,1.946-2.257c.125-.124.252-.245.38-.365a52.783,52.783,0,0,0,6.1-7.9l-1.6.633a.267.267,0,0,1-.318-.409c2.008-2.57,1.945-4.241,2.035-6.257a9.106,9.106,0,0,0-.235-2.5c-.076-.318-.179-.518-.273-.908-.031-.134-.062-.262-.1-.393a10.479,10.479,0,0,0-2.112-4.01c-.725-.814-1.322-1.039-1.294-.41,0,.175.21,1.549.252,2.688,0,.113.007.227.007.331s0,.19.007.29a4.691,4.691,0,0,1-.249,1.242,13.914,13.914,0,0,1-.638,1.881c-.777,1.887.639,5.936-.951,8.252a19.258,19.258,0,0,0-2.012,3.6c-.1.241-.154.742-.227.959-.538.268-.577-1.846-.543-2.522.08-1.564,1.215-2.623,1.953-3.63.967-1.305-.3-6.251.172-7.28a.55.55,0,0,0,.027-.055c.069-.152.587.71.587.71l-.473-.962a11.165,11.165,0,0,0,.48-1.452c.069-.518.107-1.032.131-1.553.009-.115.014-.231.019-.347a15.015,15.015,0,0,0-.226-3.387l0-.02a.784.784,0,0,1,1.208-.792C592.624,133.731,594.227,136.506,594.817,138.924Z"/><path class="cls-2" d="M590.657,144c1.652,2.318-2.7,7.916-3.567,9.183-.119.177-.237.352-.349.533a11.506,11.506,0,0,0-1.207,2.708l-.7-1.642a9.493,9.493,0,0,1,.958-1.861C590.917,145.766,590.657,144,590.657,144Z"/><line class="cls-3" x1="490.506" y1="171.525" x2="724.9" y2="171.525"/><line class="cls-3" x1="490.506" y1="190.83" x2="724.9" y2="190.83"/><path d="M273.84,202.391s2.986-21.35,24.427-22.436,63.329-8.323,67.31-42.883c0,0,1.357-8.052-5.037-19.662,0,0-3.985-7.637-3.713-9.175,0,0,18.753,52.963-52.839,60-1.546.152-3.09.266-4.642.323-8.8.324-46.142,3.089-59.794,33.837Z"/><path d="M239.552,202.391c12.3-24.426,33.148-30.654,61.239-33.232,23.7-2.176,34.741-8.685,37.7-10.6.679-.44,1.477-.917,2.156-1.357,28.113-18.232,16.092-48.676,16.184-48.967,0,0-2.74,46.75-63.9,49.917-47.225,3.438-69.84,35.331-69.3,44.378Z"/><path d="M370.849,140.329l26.236,62.062s-27.244-7.836-40.8-36.007A36.8,36.8,0,0,0,370.849,140.329Z"/><path d="M356.283,166.384s19.9,28.408,40.8,36.007H347.146l-11.52-24.185A70.075,70.075,0,0,0,356.283,166.384Z"/><path d="M264.818,107.579l-33.5,78.6s13.473-29.64,63.88-33.357C295.2,152.821,263.19,132.911,264.818,107.579Z"/><path class="cls-2" d="M300.041,146.988l-3.159,6.979s-33.6-17.588-32.064-46.388A55.832,55.832,0,0,0,300.041,146.988Z"/><path class="cls-2" d="M227.708,192.029s11.3-36.716,71.434-39.517c0,0,45.652-1.281,57.685-44.277,0,0-1.548,40.237-51.075,48.922a100.834,100.834,0,0,1-10.34.927C285.27,158.8,247.386,163.444,227.708,192.029Z"/><path class="cls-2" d="M341.154,134.867A63.961,63.961,0,0,1,321.3,147.6q-2.31-5.625-4.93-11.1l-5.84-12.25-5.84,12.25q-2.625,5.475-4.93,11.1a56.36,56.36,0,0,1-6.41-3.15,65.143,65.143,0,0,1-13.19-9.71,33.755,33.755,0,0,1-9.48-30.86c0-.02.01-.03.01-.05,2.75-11.43,11.03-23.44,15.14-28.38.76-.92.54,0,.62,1.28,1.12,19.21,11.12,23.26,11.12,23.26l12.92-8.72.04,2.64-.04-2.64,13,8.72s10-4.05,11.12-23.26c.08-1.28.3-2.24,1.07-1.32,4.1,4.94,11.94,16.99,14.69,28.42,0,.02.01.03.01.05C352.6,115.107,349.374,126.907,341.154,134.867Z"/><polygon class="cls-2" points="310.974 123.317 310.534 124.247 310.084 123.317 310.534 93.907 310.974 123.317"/><path class="cls-2" d="M302.308,91.938s-8.479-10.294-7.876-17.41c0,0-4.238,7.178-3.857,9.425,0,0,3.412,7.492,7.958,12.046C298.533,96,302.067,94.411,302.308,91.938Z"/><path class="cls-2" d="M319,92.124s8.554-10.4,7.951-17.513c0,0,4.1,7.656,3.718,9.9,0,0-3.624,7.158-8.17,11.711C322.494,96.225,319.237,94.6,319,92.124Z"/><path class="cls-2" d="M327.173,74.974a28.726,28.726,0,0,1-8.261,17.215s-7.465-7.751-8.24-6.935c-.776-.816-8.241,6.935-8.241,6.935a28.624,28.624,0,0,1-8.241-17.215A124.816,124.816,0,0,1,305.09,59.2a7.209,7.209,0,0,1,11.171-.005A124.245,124.245,0,0,1,327.173,74.974Z"/><polygon class="cls-2" points="310.974 123.317 310.534 124.247 310.084 123.317 310.534 93.907 310.974 123.317"/><path d="M281.883,127.267s6.548-20.743,13.318-27.438c0,0-9.769-11.184-9.132-24.343a.554.554,0,0,1,1.076-.15c1.618,4.864,5.648,15.4,11.569,20.271,0,0,11.018-11.52,11.962-10.977s10.234,8.5,11.8,11.459c0,0,9.885-11.339,11.934-20.552a.681.681,0,0,1,1.342.053c.46,3.843-.477,11.469-9.175,24.267,0,0,12.293,18.266,12.741,27.518,0,0-1.044,1.132-1.342,1.434-.274.278-5.69-18.8-22.789-33.788a7.108,7.108,0,0,0-9.458.009c-5.629,5.075-15.143,15.647-22.346,33.885Z"/></svg>